<?xml version="1.0" standalone="no"?>
<!DOCTYPE svg PUBLIC "-//W3C//DTD SVG 20010904//EN"
 "http://www.w3.org/TR/2001/REC-SVG-20010904/DTD/svg10.dtd">
<svg version="1.0" xmlns="http://www.w3.org/2000/svg"
 width="4064.000000pt" height="1056.000000pt" viewBox="0 0 4064.000000 1056.000000"
 preserveAspectRatio="xMidYMid meet">

<g transform="translate(0.000000,1056.000000) scale(0.100000,-0.100000)"
fill="#000000" stroke="none">
<path d="M28639 7139 c-197 -29 -396 -177 -489 -365 -118 -238 -78 -530 99
-725 77 -86 156 -142 254 -180 70 -27 98 -32 197 -36 139 -6 229 11 333 61
388 188 490 713 199 1027 -165 178 -365 252 -593 218z m278 -142 c137 -47 247
-148 312 -288 173 -368 -117 -792 -524 -766 -192 12 -360 125 -448 300 -162
322 39 710 403 781 55 10 187 -3 257 -27z"/>
<path d="M28470 6491 l0 -371 75 0 75 0 0 135 0 135 48 0 c61 0 73 -12 148
-150 31 -58 59 -108 63 -112 3 -4 44 -10 90 -13 100 -7 100 -23 -5 163 -42 73
-74 135 -72 136 1 2 17 11 35 20 100 51 133 206 67 313 -22 36 -44 55 -88 77
-57 30 -61 30 -247 34 l-189 4 0 -371z m350 224 c62 -32 76 -117 27 -163 -34
-32 -71 -42 -153 -42 l-74 0 0 110 0 110 85 0 c57 0 96 -5 115 -15z"/>
<path d="M26105 6859 c-283 -30 -551 -124 -783 -275 -215 -140 -395 -347 -521
-600 -167 -334 -205 -775 -100 -1162 162 -592 682 -1033 1317 -1117 298 -39
665 -1 906 95 232 92 455 245 603 413 171 195 293 447 355 727 20 92 23 132
23 330 -1 195 -4 239 -23 332 -68 320 -201 568 -426 794 -135 135 -246 215
-415 299 -282 140 -612 198 -936 164z m430 -598 c96 -28 244 -102 314 -155
124 -95 241 -247 300 -391 46 -109 70 -212 83 -348 36 -366 -106 -708 -377
-910 -103 -77 -193 -121 -313 -155 -88 -24 -113 -27 -267 -27 -155 0 -178 3
-266 28 -184 52 -283 111 -408 243 -182 192 -255 352 -281 620 -19 190 9 386
81 555 112 265 373 482 662 550 112 26 367 20 472 -10z"/>
<path d="M13661 6798 c-5 -13 -24 -57 -44 -98 -19 -41 -60 -133 -92 -205 -31
-71 -75 -167 -97 -213 -22 -45 -102 -221 -178 -390 -76 -169 -183 -406 -238
-527 -205 -453 -364 -802 -389 -855 -14 -30 -48 -104 -75 -165 -28 -60 -62
-135 -76 -165 -14 -30 -65 -140 -113 -245 l-87 -190 350 -3 c193 -1 353 0 355
2 2 2 22 46 43 97 21 52 84 200 138 329 l100 235 748 0 749 0 62 -145 c34 -80
100 -229 145 -332 l83 -188 357 0 c197 0 358 2 358 4 0 3 -45 101 -101 218
-55 117 -140 301 -189 408 -48 107 -136 296 -195 420 -59 124 -129 275 -155
335 -26 61 -69 155 -95 210 -26 55 -102 222 -170 370 -68 149 -156 340 -195
425 -39 85 -89 196 -111 245 -84 189 -155 342 -182 392 l-29 53 -334 0 -334 0
-9 -22z m401 -778 c26 -58 59 -136 74 -175 27 -70 153 -374 179 -430 22 -49
84 -194 121 -283 18 -45 41 -96 49 -112 9 -17 20 -41 25 -55 l10 -25 -515 0
-514 0 30 68 c17 37 58 132 91 212 33 80 68 163 78 185 10 22 39 90 64 150 26
61 53 124 61 140 8 17 34 82 59 145 25 63 59 146 76 185 18 38 36 80 41 94 12
31 16 26 71 -99z"/>
<path d="M16156 6798 c-3 -13 -6 -706 -6 -1540 l0 -1518 1140 0 1140 0 0 290
0 289 -217 -1 c-120 0 -480 0 -800 1 l-583 1 -2 1248 -3 1247 -331 3 -332 2
-6 -22z"/>
<path d="M18877 6813 c-4 -3 -7 -696 -7 -1540 l0 -1533 1235 0 1235 0 0 275 0
275 -900 0 -900 0 0 370 0 370 770 0 770 0 0 270 0 270 -770 0 -770 0 0 345 0
345 863 2 862 3 0 275 0 275 -1191 3 c-655 1 -1194 -1 -1197 -5z"/>
<path d="M21720 6809 c0 -10 99 -149 270 -379 88 -120 178 -241 475 -648 44
-61 140 -191 213 -291 74 -100 132 -185 130 -189 -2 -5 -51 -73 -111 -153 -95
-128 -534 -725 -775 -1054 -48 -65 -124 -169 -169 -230 -46 -60 -83 -113 -83
-117 0 -5 175 -8 388 -8 l388 0 54 78 c29 42 121 172 203 287 228 319 275 386
399 567 l115 166 60 -81 c33 -45 133 -187 224 -315 173 -247 295 -418 423
-595 l78 -108 347 2 c190 1 366 5 390 8 l43 6 -131 180 c-73 99 -189 258 -259
353 -120 163 -220 300 -516 709 -71 98 -154 211 -184 250 l-54 73 68 92 c71
97 168 228 214 288 15 19 51 69 81 110 30 41 142 193 249 337 107 145 237 321
288 391 51 70 101 138 112 152 43 54 90 119 90 124 0 3 -171 6 -379 6 l-380 0
-38 -56 c-21 -30 -65 -92 -99 -137 -33 -45 -83 -114 -110 -152 -57 -82 -334
-468 -430 -600 -36 -49 -69 -90 -74 -90 -10 0 -64 75 -351 485 -71 102 -189
267 -262 368 l-132 182 -382 0 c-238 -1 -383 -5 -383 -11z"/>
</g>
</svg>
